<?xml version="1.0" encoding="utf-8"?>
<!-- Generator: Adobe Illustrator 19.2.0, SVG Export Plug-In . SVG Version: 6.00 Build 0)  -->
<svg version="1.1" xmlns="http://www.w3.org/2000/svg" xmlns:xlink="http://www.w3.org/1999/xlink" x="0px" y="0px"
	 viewBox="0 0 640 480" style="enable-background:new 0 0 640 480;" xml:space="preserve">
<style type="text/css">
	.circly{fill:none;}
	.shroomy{fill:none;}
	.coney{fill:none;}
	.cloudy{fill:url(#SVGID_1_);}
	.sunny{fill:#FFBD17;}
	.smoky{fill:none;stroke:#BCBEC0;stroke-miterlimit:10;}
	.st0{fill:#BCBEC0;}
	.st1{fill:#FFFFFF;stroke:#231F20;stroke-miterlimit:10;}
	.st2{fill:#F7941E;stroke:#231F20;stroke-miterlimit:10;}
	.st3{fill:none;stroke:#231F20;stroke-miterlimit:10;}
	.st4{fill:#754C29;}
	.st5{fill:#176546;stroke:#176546;stroke-miterlimit:10;}
	.st6{fill:#BE1E2D;stroke:#BE1E2D;stroke-miterlimit:10;}
	.st7{fill:#009444;}
	.st8{fill:#F3D819;stroke:#F3D819;stroke-width:0.5;stroke-miterlimit:10;}
	.st9{fill:url(#SVGID_2_);}
	.st10{fill:url(#SVGID_3_);}
	.st11{fill:url(#SVGID_4_);}
</style>
<linearGradient id="SVGID_1_" gradientUnits="userSpaceOnUse" x1="0" y1="0" x2="1.315676e-002" y2="0.9999">
	<stop  offset="0" style="stop-color:#2484C6"/>
	<stop  offset="1" style="stop-color:#2484C6;stop-opacity:0"/>
</linearGradient>
<g id="smoke">
	<g>
		<g>
			<g>
				<g>
					<path class="st0" d="M214.1,217.1c-3.8,0.1-6.4,0.1-9.7-2.3c-2.2-1.6-3.7-3.6-3.8-6.4c-0.1-1.8,0.4-5.3,2.9-5.5
						c1.7-0.1,3.8,2.3,2.4,3.7c-1.5,1.5-5.3,1.1-7.3,1c-3.6-0.3-6.5-2.9-7.6-6.3c-0.5-1.6-0.7-3,0.3-4.5c1.7-2.7,3.4-0.9,0.9,0.8
						c-5.6,3.9-11.1-4.7-12.5-8.9c-0.5-1.5-0.6-2.1-0.2-3.6c0-1.6,0.8-2.5,2.4-2.8c-0.5,1.1-1,2.2-1.5,3.3c-3,2.3-6.4-1.5-7.9-3.8
						c-0.5-0.7-1.3-1.8-1.4-2.7c0.2,1.7,0.9-4.8,2.5-3.9c1,0.6-0.3,0.9-1.2,1.3c-1.4,0.6-3.9-0.2-5.2-0.8c-2-0.9-4.8-2.9-6.2-4.7
						c-0.9-1.2-1.5-2.7-1.1-4.2c0.1-1.7,1.3-2.4,3.7-2.1c-0.4,1.1-0.8,2.2-1.2,3.2c-3.9,1.7-9.5-7.9-10.5-10.3
						c-1.2-2.9-6.1-1.6-4.8,1.3c2.2,5.3,5.8,10.6,11.2,13.1c4.5,2,10.4,0.5,11.4-4.9c2.2-11.7-19.9-8.5-14.1,4.5
						c2.4,5.5,9.4,9.6,15.1,9.9c4.8,0.2,11-1.7,9.8-8c-1.1-6.1-7.4-4.1-11-1.8c-5,3.2-4.4,8.5-1.2,13c3.2,4.5,7.6,8.4,13.4,5.8
						c4.3-1.9,8-8.5,3.4-12.1c-3.8-3-9.7,0.7-11,4.7c-1.7,5.2,2.2,12.6,5.8,16.2c3.9,3.9,10.9,5.5,15.6,2.2c3.4-2.4,4-9.8-0.7-11.3
						c-4.1-1.3-9.1,2.7-9.5,6.7c-0.7,6.2,3.3,12.9,9.1,15.2c4.4,1.7,13.8,1.1,16.7-3.3c3.1-4.6-3.1-11.1-7.8-10.8
						c-7.3,0.5-9.1,8.6-7.3,14.5c1.2,3.7,3.9,5.6,6.9,7.9c3.3,2.5,6.9,1.9,10.9,1.8C217.3,222.1,217.3,217.1,214.1,217.1
						L214.1,217.1z"/>
				</g>
			</g>
		</g>
		<g>
			<g>
				<g>
					<path class="st0" d="M214.1,217.1c-3.8,0.1-6.4,0.1-9.7-2.3c-2.2-1.6-3.7-3.6-3.8-6.4c-0.1-1.8,0.4-5.3,2.9-5.5
						c1.7-0.1,3.8,2.3,2.4,3.7c-1.5,1.5-5.3,1.1-7.3,1c-3.6-0.3-6.5-2.9-7.6-6.3c-0.5-1.6-0.7-3,0.3-4.5c1.7-2.7,3.4-0.9,0.9,0.8
						c-5.6,3.9-11.1-4.7-12.5-8.9c-0.5-1.5-0.6-2.1-0.2-3.6c0-1.6,0.8-2.5,2.4-2.8c-0.5,1.1-1,2.2-1.5,3.3c-3,2.3-6.4-1.5-7.9-3.8
						c-0.5-0.7-1.3-1.8-1.4-2.7c0.2,1.7,0.9-4.8,2.5-3.9c1,0.6-0.3,0.9-1.2,1.3c-1.4,0.6-3.9-0.2-5.2-0.8c-2-0.9-4.8-2.9-6.2-4.7
						c-0.9-1.2-1.5-2.7-1.1-4.2c0.1-1.7,1.3-2.4,3.7-2.1c-0.4,1.1-0.8,2.2-1.2,3.2c-3.9,1.7-9.5-7.9-10.5-10.3
						c-1.2-2.9-6.1-1.6-4.8,1.3c2.2,5.3,5.8,10.6,11.2,13.1c4.5,2,10.4,0.5,11.4-4.9c2.2-11.7-19.9-8.5-14.1,4.5
						c2.4,5.5,9.4,9.6,15.1,9.9c4.8,0.2,11-1.7,9.8-8c-1.1-6.1-7.4-4.1-11-1.8c-5,3.2-4.4,8.5-1.2,13c3.2,4.5,7.6,8.4,13.4,5.8
						c4.3-1.9,8-8.5,3.4-12.1c-3.8-3-9.7,0.7-11,4.7c-1.7,5.2,2.2,12.6,5.8,16.2c3.9,3.9,10.9,5.5,15.6,2.2c3.4-2.4,4-9.8-0.7-11.3
						c-4.1-1.3-9.1,2.7-9.5,6.7c-0.7,6.2,3.3,12.9,9.1,15.2c4.4,1.7,13.8,1.1,16.7-3.3c3.1-4.6-3.1-11.1-7.8-10.8
						c-7.3,0.5-9.1,8.6-7.3,14.5c1.2,3.7,3.9,5.6,6.9,7.9c3.3,2.5,6.9,1.9,10.9,1.8C217.3,222.1,217.3,217.1,214.1,217.1
						L214.1,217.1z"/>
				</g>
				<g>
					<g>
						<path class="st0" d="M214.1,214.6c-2.9,0-5.6,0-8-1.7c-1.3-0.9-2.1-1.8-2.6-3.3c-0.5-1.5,0.2-2-0.2-3.4
							c-0.4-1.6,0.3-0.7-1.5-0.9c-0.8-0.1-1.5,0-2.3-0.1c-1.8-0.2-3-0.6-4.3-1.8c-0.4-0.4-3.3-5.5-2.6-5.3c-0.6-0.6-1.2-1.2-1.7-1.7
							c0.4,1.4-4.8-1.9-4.7-1.8c-1-0.9-1.8-2.1-2.5-3.3c-0.7-1.1-3.1-5.8-1-6.5c-0.9-1.2-1.9-2.4-2.8-3.7c-1.8,4.1-5.3,0.3-6.2-2.5
							c-1-3-5.6-1.8-4.8,1.3c0,0.1,0,0.2,0.1,0.3c0.4,1.5,2.3,2.3,3.7,1.5c0.8-0.5,1-1.1,1.4-1.9c0.1-0.3,0.3-0.9,0.3-1.2
							c0.1-0.4,0.2-0.7,0.4-1.1c0.6-1.1-0.3-1.3-2.8-0.4c0.3-1.1,0.6-2.3,0.9-3.4c-1.9,1.2-4.1,0-5.8-1c-0.8-0.5-1.6-1-2.3-1.6
							c-1.4-0.8-1.7-2.1-1-3.8c-0.8-1.1-1.6-2.1-2.4-3.2c-0.4,1.1-0.8,2.2-1.2,3.2c0.6-0.6,1.2-1.2,1.7-1.7c-3,0.8-6.2-6.6-7.4-8.7
							c-1.5-2.5-4-4.3-7.1-2.9c-8.2,3.7,3.4,16.2,7.3,18.8c6.3,4.3,16.6,3.2,17.8-5.8c0.7-5.4-3.2-9.4-8.5-9.5
							c-5.1-0.1-10.4,3-11.4,8.3c-1.5,7.9,6,14.7,12.6,17.1c6,2.2,16.6,1.7,18.1-6.2c1.5-8-5.8-11.1-12.1-8.4
							c-20.3,8.7,7.2,38.3,17.6,19.3c4-7.3-2.4-15.2-10.3-11.8c-9.3,4-7.5,14.9-2.8,21.8c4.6,6.7,14.8,11.6,22,5.7
							c4.8-3.9,4.8-13.3-1.8-15.4c-9-2.9-14.2,7.8-12.2,15.1c2.4,8.5,10.1,13.2,18.7,12.5c8.1-0.7,16.8-7.4,9.9-15.6
							c-5.9-7.1-16.3-4.5-18.6,4.3c-2.4,9.2,4.7,19.3,14.2,20.5c3.4,0.4,8.7,1,10.7-2.5c1.7-3.1-0.3-6.8-3.6-7.3
							c-3.1-0.5-4.5,4.3-1.3,4.8c-2.2-0.4-4.4,0.5-6.7-0.3c-2.1-0.7-4.4-2.4-5.9-4.1c-2.8-3.1-3.9-8.4-1.5-12.1
							c2.5-3.9,9.6-2.7,10.2,2.2c0.6,5.2-8.4,5.6-11.7,5.1c-4.6-0.7-8.2-4.3-9.5-8.8c-0.7-2.6-0.7-5.3,1.3-7.3
							c2.7-2.8,7.1-1.5,6.2,2.6c-1.3,5.9-9.7,4.1-13.1,1.4c-3.5-2.8-7.3-9-6-13.7c0.4-1.6,1.3-3.1,2.9-3.9c1.7-0.8,4.8-2.3,5.3,2.2
							c0.3,2.6-2.9,5.3-5.1,5.9c-4.9,1.3-11.4-5.5-11.3-10.2c0.1-4.1,9.8-9.7,9.8-3.6c0,4.9-7.5,4.5-10.6,3.6
							c-5-1.4-15.8-10.7-7.7-15.1c1.6-0.9,4.1-1.3,5.8-0.4c3.5,1.9,1.1,6.7-2.1,7.4c-6,1.3-10.6-5.5-13.1-9.9
							c-1.2-2.2-0.5-0.8,0.2,0.4c0.8,1.5,1.8,3,2.9,4.4c1.6,2.1,3.7,4.6,6.4,5.3c4.1,1,4.9-1.8,6-5c0.6-1.6-0.9-3.1-2.4-3.2
							c-6.3-0.3-7.9,6-4.4,10.5c3.3,4.2,10.8,8.6,15.9,5.2c1.1-0.7,1.7-2.2,0.9-3.4c-1.1-1.7-3-2.4-4.8-1.1
							c-0.8,0.6-1.1,1.5-1.5,2.4c-0.2,0.4-0.4,0.9-0.5,1.4c-0.3,1.5-0.9,1,0.6,0.1c1.2,0.5,2.4,1,3.7,1.5c0-0.1,0-0.2-0.1-0.3
							c-1.6,0.4-3.2,0.9-4.8,1.3c1.1,3.3,3.8,7,7.1,8.4c4.5,2,6.6-0.9,8.3-4.6c0.8-1.8-0.6-4.4-2.8-3.7c-8,2.7-3.5,12.9,0.5,17.3
							c2.3,2.5,5.5,4.6,9,3.8c2.7-0.6,5.8-3,4.9-6c-0.2-0.8-0.9-1.5-1.7-1.7c-3-0.7-5.2,2.1-5.7,4.8c-0.7,3.7,1.6,7.6,4.4,9.8
							c3.4,2.7,16.5,4.9,16.2-2.4c-0.1-2.7-2.9-5.1-5.6-4.9c-3.1,0.3-4.6,3.3-4.9,6.1c-1.1,9.3,8.2,13.2,15.9,13
							C217.3,219.6,217.3,214.6,214.1,214.6z"/>
					</g>
				</g>
			</g>
		</g>
	</g>
</g>
<g id="shroom">
	<g>
		<g>
			<path class="st1" d="M291.4,297.9c0,0,0,0.1,0,0.1c-1.6,0-3.2,0-4.8,0c-0.9,0-1.8,0-2.7,0c-0.9,0-1.7,0-2.6,0c-1.6,0-3.2,0-4.8,0
				c0,0,0-0.1,0-0.1c-20.2-0.6-38.5-3-53.2-6.7c0.8,3.8,1.5,7.5,1.6,10.7c0.2,3.8-13.6,21.8-14.4,25.5c-1.3,6.1-13.1,35,24.8,38.4
				c0.9,0.2,1.8,0.3,2.7,0.3c0,0,1.8,0,4.9,0c18.1,0,66.3,0,81.9,0c3.1,0,4.9,0,4.9,0c0.9,0,1.8-0.1,2.7-0.3
				c37.9-3.4,26.1-32.3,24.8-38.4c-0.8-3.7-14.5-21.7-14.4-25.5c0.1-3.2,0.8-7,1.6-10.8C329.9,294.8,311.5,297.3,291.4,297.9z"/>
			<path class="st2" d="M276.5,298.1c1.6,0,3.2,0,4.8,0c0.9,0,1.7,0,2.6,0c0.9,0,1.8,0,2.7,0c1.6,0,3.2,0,4.8,0c0,0,0-0.1,0-0.1
				c20.2-0.7,38.5-3.1,53.2-6.8c21.3-5.3,34.7-13.3,34.7-22.1c0-10.7-7.9-17.8-37.5-22.7c0-0.3-6.9-0.5-16.6-14.3
				c-6.1-8.7-6.7-39.9-33.7-42.7c0-0.1,0-0.1,0-0.2c-0.1,0-0.6,0-1.3,0.1c-2-0.1-4.1-0.1-6.3,0c-2.2-0.2-4.3-0.2-6.3,0
				c-0.7-0.1-1.2-0.1-1.3-0.1c0,0.1,0,0.1,0,0.2c-27,2.9-27.5,34.1-33.6,42.8c-9.7,13.9-16.6,14.1-16.6,14.4
				c-29.6,5-37.4,12.1-37.4,22.8c0,8.8,13.5,16.7,34.8,22c14.7,3.6,33,6.1,53.2,6.7C276.5,298,276.5,298,276.5,298.1z"/>
		</g>
		<circle class="st1" cx="241.4" cy="316.9" r="13.2"/>
		<line class="st3" x1="241.4" y1="330.1" x2="241.4" y2="303.7"/>
		<line class="st3" x1="228.2" y1="316.9" x2="254.6" y2="316.9"/>
		<path class="st2" d="M300.5,366.2h-30c-6.6,0-12-5.4-12-12v-25.3c0-6.6,5.4-12,12-12h30c6.6,0,12,5.4,12,12v25.3
			C312.5,360.8,307.1,366.2,300.5,366.2z"/>
		<circle class="st1" cx="301.8" cy="344.8" r="3.2"/>
		<circle class="st1" cx="329.7" cy="316.9" r="13.2"/>
		<line class="st3" x1="316.4" y1="316.9" x2="342.9" y2="316.9"/>
		<path class="st2" d="M225.9,226.3l-8-8.7c-5.3,0-13.8,2.9-13.8,8.2l9.9,31.6c1.9,5.6,11.8,10.9,9.7,9.7l8.1,2.2
			c5.3,0,15.4,2,13.2-7.7v-3.3C245,253,231.8,235.6,225.9,226.3z"/>
		<line class="st3" x1="329.7" y1="303.7" x2="329.7" y2="330.1"/>
	</g>
</g>
<g id="circle">
	<g>
		<path class="st4" d="M487.3,331.9L487.3,331.9c-3.1,0-6.1-0.2-9.1-0.6l1.4,16.8c0,6.6-17.3,18.2-10.7,18.2h1.5h33.6h1.5
			c6.6,0-10.7-11.6-10.7-18.2l1.4-16.8C493.4,331.6,490.3,331.9,487.3,331.9z"/>
		<path class="st5" d="M487.3,331.9c3.1,0,6.1-0.2,9.1-0.6c31.3-4.4,55.5-31.3,55.5-63.9c0-35.6-28.9-64.5-64.5-64.5
			c-35.6,0-64.5,28.9-64.5,64.5c0,32.6,24.1,59.5,55.5,63.9C481.2,331.6,484.2,331.9,487.3,331.9L487.3,331.9z"/>
	</g>
</g>
<g id="berries">
	<g>
		<circle class="st6" cx="476.8" cy="236.8" r="3.2"/>
		<circle class="st6" cx="504" cy="252.7" r="3"/>
		<circle class="st6" cx="503.3" cy="231.3" r="2.3"/>
		<circle class="st6" cx="442.7" cy="245.2" r="1.7"/>
		<circle class="st6" cx="476.8" cy="270.5" r="3.2"/>
		<circle class="st6" cx="453.9" cy="268.9" r="1.6"/>
		<circle class="st6" cx="524.6" cy="293.4" r="2.3"/>
		<circle class="st6" cx="469" cy="254.2" r="1.5"/>
		<circle class="st6" cx="490.1" cy="300.9" r="2.8"/>
		<circle class="st6" cx="503.3" cy="282" r="2.3"/>
		<circle class="st6" cx="531.8" cy="253.5" r="0.8"/>
		<circle class="st6" cx="481.1" cy="212.8" r="1.1"/>
		<circle class="st6" cx="460.2" cy="283.2" r="1.2"/>
		<circle class="st6" cx="469" cy="312.5" r="1.5"/>
		<circle class="st6" cx="445.8" cy="299.5" r="1.4"/>
		<circle class="st6" cx="438" cy="270.3" r="3"/>
		<circle class="st6" cx="470.7" cy="294.6" r="1.2"/>
		<circle class="st6" cx="512.7" cy="309.3" r="1.7"/>
		<circle class="st6" cx="492.9" cy="322.3" r="0"/>
		<circle class="st6" cx="525.4" cy="268.1" r="0.8"/>
		<circle class="st6" cx="447" cy="226.4" r="2.6"/>
		<circle class="st6" cx="525.1" cy="234.1" r="2.8"/>
		<circle class="st6" cx="505.1" cy="212.8" r="1.1"/>
		<circle class="st6" cx="545.7" cy="275.7" r="2"/>
		<ellipse class="st6" cx="490.1" cy="319.6" rx="2.8" ry="2.7"/>
	</g>
</g>
<g id="cone">
	<g>
		<path class="st4" d="M116.1,333.6c-2,0.2-4,0.2-6,0.2c-1.1,0.1-2.3,0.1-3.4,0.1c0-0.1,0-0.1,0-0.2c-1.8-0.1-3.6-0.3-5.3-0.6
			l1.3,14.9c0,6.6-17.3,18.2-10.7,18.2h1.5H127h1.5c6.6,0-10.7-11.6-10.7-18.2l1.3-15.2c-1,0.2-2,0.4-3,0.5
			C116.1,333.4,116.1,333.5,116.1,333.6z"/>
		<path class="st7" d="M152.9,267.8c0,0-2.1-64.3-36.9-139.8c-2.2-4.7-6.7-14.1-12.6-14.1c-0.8,0-1.7,0.2-2.4,0.6
			c-4.9,2-8.1,10.2-9.7,14.6c-29,78-26.3,142.2-26.3,142.2c1.6,38.7,6.7,46.4,11.6,51c6.4,6,15.2,9.6,24.7,11
			c1.8,0.3,3.5,0.4,5.3,0.6c0,0.1,0,0.1,0,0.2c1.1,0,2.3,0,3.4-0.1c2,0,4,0,6-0.2c0-0.1,0-0.2,0-0.4c1-0.1,2-0.3,3-0.5
			c10.3-1.9,19.7-6.3,26.1-13.3C149.7,314.5,154.2,306.5,152.9,267.8z"/>
	</g>
</g>
<g id="seeds">
	<path class="st8" d="M92.6,150.2c0,0-5,8.2,0,8.1S92.6,150.2,92.6,150.2z"/>
	<path class="st8" d="M124.5,202.8c5-0.1,0-8.1,0-8.1S119.5,202.9,124.5,202.8"/>
	<path class="st8" d="M82.8,256.7c5-0.1,0-8.1,0-8.1S77.8,256.8,82.8,256.7"/>
	<path class="st8" d="M132.2,259.8c5-0.1,0-8.1,0-8.1S127.2,259.8,132.2,259.8"/>
	<path class="st8" d="M94.9,315c5-0.1,0-8.1,0-8.1S89.9,315.1,94.9,315"/>
	<path class="st8" d="M139,302.1c5-0.1,0-8.1,0-8.1S134,302.2,139,302.1"/>
	<path class="st8" d="M110.2,223.8c5-0.1,0-8.1,0-8.1S105.2,223.8,110.2,223.8"/>
	<path class="st8" d="M77,230.4c2.5,0,0-2.8,0-2.8S74.5,230.4,77,230.4"/>
	<path class="st8" d="M110.2,177c5-0.1,0-8.1,0-8.1S105.2,177.1,110.2,177"/>
	<path class="st8" d="M82.8,201c5-0.1,0-8.1,0-8.1S77.8,201.1,82.8,201"/>
	<path class="st8" d="M112.4,135c5-0.1,0-8.1,0-8.1S107.4,135.1,112.4,135"/>
	<path class="st8" d="M99.3,274.6c5-0.1,0-8.1,0-8.1S94.3,274.6,99.3,274.6"/>
	<path class="st8" d="M122.2,290.1c5-0.1,0-8.1,0-8.1S117.2,290.2,122.2,290.1"/>
	<path class="st8" d="M120,255.6c2.5,0,0-2.8,0-2.8S117.5,255.7,120,255.6"/>
	<path class="st8" d="M109,316.5c2.5,0,0-2.8,0-2.8S106.6,316.5,109,316.5"/>
	<path class="st8" d="M118.9,151.6c2.5,0,0-2.8,0-2.8S116.4,151.7,118.9,151.6"/>
	<path class="st8" d="M101.5,198.4c2.5,0,0-2.8,0-2.8S99.1,198.4,101.5,198.4"/>
	<path class="st8" d="M85,292.5c2.5,0,0-2.8,0-2.8S82.5,292.6,85,292.5"/>
	<path class="st8" d="M99.3,123.2c2.5,0,0-2.8,0-2.8S96.8,123.3,99.3,123.2"/>
	<path class="st8" d="M132.2,227.9c2.5,0,0-2.8,0-2.8S129.7,227.9,132.2,227.9"/>
</g>
<g id="sun">
	<circle class="sunny" cx="333.5" cy="109.2" r="34.9"/>
</g>
<g id="cloud">
	<g>
		<linearGradient id="SVGID_2_" gradientUnits="userSpaceOnUse" x1="346.7087" y1="127.522" x2="347.2996" y2="172.4322">
			<stop  offset="0" style="stop-color:#2484C6"/>
			<stop  offset="1" style="stop-color:#2484C6;stop-opacity:0"/>
		</linearGradient>
		<path class="st9" d="M398.2,134.3c-2.5,0-4.8,0.5-6.9,1.3c-4.2-4.9-10.9-8.1-18.6-8.1c-2.4,0-4.8,0.3-7,0.9
			c-4.1-4.1-9.7-6.6-15.9-6.6c-5,0-9.6,1.6-13.3,4.4c-2.6-0.6-5.4-1-8.3-1c-9.6,0-18.1,3.8-22.9,9.5c-1.4-0.2-2.8-0.3-4.3-0.3
			c-12.1,0-21.8,7.2-21.8,16c0,8.8,9.8,16,21.8,16c4.8,0,9.3-1.1,12.9-3.1c4.2,2,9.1,3.1,14.4,3.1c4.3,0,8.4-0.8,12.1-2.1
			c2.9,1.4,6.2,2.1,9.6,2.1c4,0,7.7-1,11-2.8c3.5,1.8,7.6,2.8,11.9,2.8c6.4,0,12.1-2.2,16.3-5.8c2.6,1.5,5.8,2.3,9.2,2.3
			c9.3,0,16.8-6.4,16.8-14.3C415,140.7,407.5,134.3,398.2,134.3z"/>
		<linearGradient id="SVGID_3_" gradientUnits="userSpaceOnUse" x1="200.2079" y1="76.5494" x2="200.898" y2="128.9991">
			<stop  offset="0" style="stop-color:#2484C6"/>
			<stop  offset="1" style="stop-color:#2484C6;stop-opacity:0"/>
		</linearGradient>
		<path class="st10" d="M268.5,84.5c-3.3,0-6.4,0.5-9.2,1.5c-5.5-5.7-14.5-9.5-24.7-9.5c-3.2,0-6.3,0.4-9.3,1.1
			c-5.4-4.7-12.9-7.7-21.2-7.7c-6.6,0-12.8,1.9-17.7,5.1c-3.5-0.7-7.2-1.1-11.1-1.1c-12.8,0-24,4.4-30.5,11
			c-1.9-0.2-3.8-0.4-5.7-0.4c-16,0-29,8.4-29,18.7c0,10.3,13,18.7,29,18.7c6.4,0,12.3-1.3,17.1-3.6c5.5,2.3,12.1,3.6,19.1,3.6
			c5.8,0,11.2-0.9,16-2.5c3.9,1.6,8.2,2.5,12.7,2.5c5.3,0,10.3-1.2,14.6-3.3c4.6,2.1,10,3.3,15.9,3.3c8.5,0,16.1-2.6,21.6-6.7
			c3.5,1.7,7.7,2.7,12.2,2.7c12.3,0,22.3-7.5,22.3-16.7C290.9,91.9,280.9,84.5,268.5,84.5z"/>
		<linearGradient id="SVGID_4_" gradientUnits="userSpaceOnUse" x1="469.2318" y1="72.0614" x2="469.9219" y2="124.5111">
			<stop  offset="0" style="stop-color:#2484C6"/>
			<stop  offset="1" style="stop-color:#2484C6;stop-opacity:0"/>
		</linearGradient>
		<path class="st11" d="M537.6,80c-3.3,0-6.4,0.5-9.2,1.5c-5.5-5.7-14.5-9.5-24.7-9.5c-3.2,0-6.3,0.4-9.3,1.1
			c-5.4-4.7-12.9-7.7-21.2-7.7c-6.6,0-12.8,1.9-17.7,5.1c-3.5-0.7-7.2-1.1-11.1-1.1c-12.8,0-24,4.4-30.5,11
			c-1.9-0.2-3.8-0.4-5.7-0.4c-16,0-29,8.4-29,18.7c0,10.3,13,18.7,29,18.7c6.4,0,12.3-1.3,17.1-3.6c5.5,2.3,12.1,3.6,19.1,3.6
			c5.8,0,11.2-0.9,16-2.5c3.9,1.6,8.2,2.5,12.7,2.5c5.3,0,10.3-1.2,14.6-3.3c4.6,2.1,10,3.3,15.9,3.3c8.5,0,16.1-2.6,21.6-6.7
			c3.5,1.7,7.7,2.7,12.2,2.7c12.3,0,22.3-7.5,22.3-16.7C559.9,87.5,549.9,80,537.6,80z"/>
	</g>
	<g>
	</g>
	<g>
	</g>
	<g>
	</g>
	<g>
	</g>
	<g>
	</g>
	<g>
	</g>
</g>
</svg>
